<?xml version="1.0" standalone="no"?>
<!DOCTYPE svg PUBLIC "-//W3C//DTD SVG 20010904//EN"
 "http://www.w3.org/TR/2001/REC-SVG-20010904/DTD/svg10.dtd">
<svg version="1.0" xmlns="http://www.w3.org/2000/svg"
 width="444.000000pt" height="23.000000pt" viewBox="0 0 444.000000 23.000000"
 preserveAspectRatio="xMidYMid meet">
<metadata>
Created by potrace 1.16, written by Peter Selinger 2001-2019
</metadata>
<g transform="translate(0.000000,23.000000) scale(0.100000,-0.100000)"
fill="#0000cc" stroke="none">
<path d="M0 202 c0 -15 36 -43 140 -107 82 -51 146 -85 155 -81 11 4 15 23 15
81 0 41 2 75 5 75 3 0 63 -36 133 -80 71 -44 133 -80 139 -80 6 0 8 30 5 80
-2 44 -2 80 2 80 3 0 64 -36 136 -81 76 -48 136 -79 145 -75 11 4 15 23 15 81
0 41 2 75 5 75 3 0 63 -36 133 -80 71 -44 133 -80 138 -80 7 0 9 33 6 87 l-5
87 24 -15 c170 -108 261 -160 274 -155 12 4 15 23 15 81 0 41 2 75 5 75 3 0
63 -36 133 -80 71 -44 133 -80 138 -80 7 0 9 33 6 87 l-5 87 24 -15 c170 -108
261 -160 274 -155 12 4 15 23 15 81 0 41 2 75 5 75 3 0 63 -36 133 -80 71 -44
133 -80 138 -80 7 0 9 33 6 87 l-5 87 24 -15 c170 -108 261 -160 274 -155 12
4 15 23 15 81 0 41 2 75 5 75 3 0 63 -36 133 -80 71 -44 133 -80 138 -80 7 0
9 33 6 87 l-5 87 24 -15 c170 -108 261 -160 274 -155 12 4 15 23 15 81 0 41 2
75 5 75 3 0 63 -36 133 -80 71 -44 133 -80 138 -80 7 0 9 33 6 87 l-5 87 24
-15 c170 -108 261 -160 274 -155 12 4 15 23 15 81 0 41 2 75 5 75 3 0 63 -36
133 -80 71 -44 133 -80 138 -80 7 0 9 33 6 87 l-5 87 24 -15 c170 -108 261
-160 274 -155 11 4 15 24 17 81 1 41 2 85 2 97 1 13 -6 24 -15 26 -13 2 -15
-10 -11 -88 l4 -91 -138 87 c-76 48 -146 89 -156 92 -16 4 -18 -4 -18 -77 0
-44 -2 -81 -5 -81 -3 0 -63 36 -133 80 -71 44 -133 80 -138 80 -6 0 -8 -35 -6
-90 l4 -91 -138 87 c-76 48 -146 89 -156 92 -16 4 -18 -4 -18 -77 0 -44 -2
-81 -5 -81 -3 0 -63 36 -133 80 -71 44 -133 80 -138 80 -6 0 -8 -35 -6 -90 l4
-91 -138 87 c-76 48 -146 89 -156 92 -16 4 -18 -4 -18 -77 0 -44 -2 -81 -5
-81 -3 0 -63 36 -133 80 -71 44 -133 80 -138 80 -6 0 -8 -35 -6 -90 l4 -91
-138 87 c-76 48 -146 89 -156 92 -16 4 -18 -4 -18 -77 0 -44 -2 -81 -5 -81 -3
0 -63 36 -133 80 -71 44 -133 80 -138 80 -6 0 -8 -35 -6 -90 l4 -91 -138 87
c-76 48 -146 89 -156 92 -16 4 -18 -4 -18 -77 0 -44 -2 -81 -5 -81 -3 0 -63
36 -133 80 -71 44 -133 80 -138 80 -6 0 -8 -35 -6 -90 l4 -91 -138 87 c-76 48
-146 89 -156 92 -16 4 -18 -4 -18 -77 0 -44 -2 -81 -5 -81 -3 0 -63 36 -133
80 -71 44 -133 80 -138 80 -6 0 -8 -35 -6 -90 l4 -91 -138 87 c-76 48 -146 89
-155 91 -14 4 -15 -5 -11 -76 2 -45 2 -81 -2 -81 -3 0 -64 36 -134 80 -71 44
-133 80 -138 80 -6 0 -8 -35 -6 -91 l4 -90 -108 68 c-198 125 -184 118 -184
95z"/>
</g>
</svg>
