<?xml version="1.0" standalone="no"?>
<!DOCTYPE svg PUBLIC "-//W3C//DTD SVG 20010904//EN"
 "http://www.w3.org/TR/2001/REC-SVG-20010904/DTD/svg10.dtd">
<svg version="1.0" xmlns="http://www.w3.org/2000/svg"
 width="454.000000pt" height="18.000000pt" viewBox="0 0 454.000000 18.000000"
 preserveAspectRatio="xMidYMid meet">
<metadata>
Created by potrace 1.16, written by Peter Selinger 2001-2019
</metadata>
<g transform="translate(0.000000,18.000000) scale(0.100000,-0.100000)"
fill="#000000" stroke="none">
<path d="M0 165 c0 -23 142 -165 165 -165 18 0 20 5 17 72 l-3 73 68 -72 c40
-42 77 -73 88 -73 18 0 20 6 17 71 l-4 71 69 -71 c44 -46 77 -71 91 -71 21 0
22 5 22 67 l0 67 63 -67 c41 -43 72 -67 85 -67 20 0 22 5 22 70 l0 70 68 -70
c44 -45 76 -70 90 -70 21 0 22 5 22 67 l0 67 63 -67 c41 -43 72 -67 85 -67 20
0 22 5 22 70 l0 70 68 -70 c44 -45 76 -70 90 -70 21 0 22 5 22 67 l0 67 63
-67 c41 -43 72 -67 85 -67 20 0 22 5 22 70 l0 70 68 -70 c44 -45 76 -70 90
-70 21 0 22 5 22 67 l0 67 63 -67 c41 -43 72 -67 85 -67 20 0 22 5 22 70 l0
70 68 -70 c44 -45 76 -70 90 -70 21 0 22 5 22 67 l0 67 63 -67 c41 -43 72 -67
85 -67 20 0 22 5 22 70 l0 70 68 -70 c44 -45 76 -70 90 -70 21 0 22 5 22 67
l0 67 63 -67 c41 -43 72 -67 85 -67 20 0 22 5 22 70 l0 70 68 -70 c44 -45 76
-70 90 -70 21 0 22 5 22 67 l0 67 63 -67 c41 -43 72 -67 85 -67 20 0 22 5 22
70 l0 70 68 -70 c44 -45 76 -70 90 -70 21 0 22 5 22 67 l0 67 63 -67 c41 -43
72 -67 85 -67 20 0 22 5 22 70 l0 70 68 -70 c44 -45 76 -70 90 -70 21 0 22 5
22 67 l0 67 63 -67 c41 -43 72 -67 85 -67 20 0 22 5 22 70 l0 70 68 -70 c44
-45 76 -70 90 -70 21 0 22 5 22 67 l0 67 63 -67 c41 -43 72 -67 85 -67 20 0
22 5 22 70 l0 70 68 -70 c44 -45 76 -70 90 -70 21 0 22 5 22 67 l0 67 63 -67
c40 -42 72 -67 85 -67 19 0 21 6 24 62 l3 63 60 -62 c39 -41 68 -63 83 -63 21
0 22 4 22 67 l0 67 63 -67 c41 -43 72 -67 85 -67 21 0 22 4 22 90 0 53 -4 90
-10 90 -6 0 -10 -32 -10 -75 l0 -75 -72 75 c-51 54 -78 75 -96 75 -20 0 -22
-3 -13 -14 7 -8 11 -38 9 -72 l-3 -58 -69 72 c-50 52 -77 72 -95 72 -19 0 -22
-3 -13 -12 7 -7 12 -39 12 -75 l0 -63 -72 75 c-51 54 -78 75 -96 75 -20 0 -22
-3 -13 -14 7 -8 11 -38 9 -72 l-3 -58 -69 72 c-42 43 -78 72 -90 72 -20 0 -21
-5 -18 -76 l4 -75 -73 75 c-52 55 -79 76 -97 76 -20 0 -22 -3 -13 -14 7 -8 11
-38 9 -72 l-3 -58 -69 72 c-42 43 -78 72 -90 72 -20 0 -21 -5 -18 -76 l4 -75
-73 75 c-52 55 -79 76 -97 76 -20 0 -22 -3 -13 -14 7 -8 11 -38 9 -72 l-3 -58
-69 72 c-42 43 -78 72 -90 72 -20 0 -21 -5 -18 -76 l4 -75 -73 75 c-52 55 -79
76 -97 76 -20 0 -22 -3 -13 -14 7 -8 11 -38 9 -72 l-3 -58 -69 72 c-42 43 -78
72 -90 72 -20 0 -21 -5 -18 -76 l4 -75 -73 75 c-52 55 -79 76 -97 76 -20 0
-22 -3 -13 -14 7 -8 11 -38 9 -72 l-3 -58 -69 72 c-42 43 -78 72 -90 72 -20 0
-21 -5 -18 -76 l4 -75 -73 75 c-52 55 -79 76 -97 76 -20 0 -22 -3 -13 -14 7
-8 11 -38 9 -72 l-3 -58 -69 72 c-42 43 -78 72 -90 72 -20 0 -21 -5 -18 -76
l4 -75 -73 75 c-52 55 -79 76 -97 76 -20 0 -22 -3 -13 -14 7 -8 11 -38 9 -72
l-3 -58 -69 72 c-42 43 -78 72 -90 72 -20 0 -21 -5 -18 -76 l4 -75 -73 75
c-52 55 -79 76 -97 76 -20 0 -22 -3 -13 -14 7 -8 11 -38 9 -72 l-3 -58 -69 72
c-42 43 -78 72 -90 72 -20 0 -21 -5 -18 -76 l4 -75 -73 75 c-52 55 -79 76 -97
76 -20 0 -22 -3 -13 -14 7 -8 11 -38 9 -72 l-3 -58 -69 72 c-42 43 -78 72 -90
72 -20 0 -21 -5 -18 -76 l4 -75 -73 75 c-52 55 -79 76 -97 76 -20 0 -22 -3
-13 -14 7 -8 11 -38 9 -72 l-3 -58 -69 72 c-42 43 -78 72 -90 72 -20 0 -21 -5
-18 -76 l4 -75 -73 75 c-52 55 -79 76 -97 76 -20 0 -22 -3 -13 -14 7 -8 11
-38 9 -72 l-3 -58 -69 72 c-42 43 -78 72 -90 72 -20 0 -21 -5 -18 -71 l4 -71
-68 71 c-41 44 -75 71 -88 71 -20 0 -21 -4 -18 -66 4 -77 4 -77 -76 7 -55 58
-82 73 -82 44z"/>
</g>
</svg>
