<?xml version="1.0" standalone="no"?>
<!DOCTYPE svg PUBLIC "-//W3C//DTD SVG 20010904//EN"
 "http://www.w3.org/TR/2001/REC-SVG-20010904/DTD/svg10.dtd">
<svg version="1.0" xmlns="http://www.w3.org/2000/svg"
 width="460.000000pt" height="18.000000pt" viewBox="0 0 460.000000 18.000000"
 preserveAspectRatio="xMidYMid meet">
<metadata>
Created by potrace 1.16, written by Peter Selinger 2001-2019
</metadata>
<g transform="translate(0.000000,18.000000) scale(0.100000,-0.100000)"
fill="#000000" stroke="none">
<path d="M0 156 c0 -18 7 -25 29 -29 16 -3 63 -28 105 -56 122 -79 181 -79
304 2 60 39 88 51 127 55 45 3 56 0 115 -39 158 -103 201 -104 350 -6 69 45
79 49 125 45 39 -4 67 -16 127 -55 124 -81 182 -81 306 0 60 39 88 51 127 55
45 3 56 0 115 -39 158 -103 201 -104 350 -6 69 45 79 49 125 45 39 -4 67 -16
127 -55 124 -81 182 -81 306 0 60 39 88 51 127 55 45 3 56 0 115 -39 158 -103
201 -104 350 -6 69 45 79 49 125 45 39 -4 67 -16 127 -55 124 -81 182 -81 306
0 60 39 88 51 127 55 45 3 56 0 115 -39 158 -103 201 -104 349 -7 40 26 84 48
97 48 19 0 24 5 24 26 0 25 -2 26 -41 21 -25 -3 -70 -25 -121 -59 -113 -73
-143 -73 -258 2 -76 50 -89 55 -149 58 -62 3 -70 1 -126 -34 -91 -57 -146 -84
-170 -84 -24 0 -79 27 -170 84 -56 35 -64 37 -126 34 -60 -3 -73 -8 -149 -58
-115 -76 -145 -76 -260 0 -76 50 -89 55 -149 58 -62 3 -70 1 -126 -34 -91 -57
-146 -84 -170 -84 -24 0 -79 27 -170 84 -56 35 -64 37 -126 34 -60 -3 -73 -8
-149 -58 -115 -76 -145 -76 -260 0 -76 50 -89 55 -149 58 -62 3 -70 1 -126
-34 -91 -57 -146 -84 -170 -84 -24 0 -79 27 -170 84 -56 35 -64 37 -126 34
-60 -3 -73 -8 -149 -58 -115 -76 -145 -76 -260 0 -76 50 -89 55 -149 58 -62 3
-70 1 -126 -34 -91 -57 -146 -84 -170 -84 -24 0 -78 27 -169 83 -71 44 -116
49 -116 13z"/>
</g>
</svg>
