<?xml version="1.0" standalone="no"?>
<!DOCTYPE svg PUBLIC "-//W3C//DTD SVG 20010904//EN"
 "http://www.w3.org/TR/2001/REC-SVG-20010904/DTD/svg10.dtd">
<svg version="1.0" xmlns="http://www.w3.org/2000/svg"
 width="460.000000pt" height="18.000000pt" viewBox="0 0 460.000000 18.000000"
 preserveAspectRatio="xMidYMid meet">
<metadata>
Created by potrace 1.16, written by Peter Selinger 2001-2019
</metadata>
<g transform="translate(0.000000,18.000000) scale(0.100000,-0.100000)"
fill="#008000" stroke="black" stroke-width="35">
<path d="M0 170 c0 -6 27 -10 60 -10 l60 0 0 -80 0 -80 160 0 160 0 0 80 0 80
130 0 130 0 0 -80 0 -80 155 0 155 0 0 80 0 80 130 0 130 0 0 -80 0 -80 160 0
160 0 0 80 0 80 130 0 130 0 0 -80 0 -80 160 0 160 0 0 80 0 80 130 0 130 0 0
-80 0 -80 155 0 155 0 0 80 0 80 130 0 130 0 0 -80 0 -80 155 0 155 0 0 80 0
80 130 0 130 0 0 -80 0 -80 155 0 155 0 0 80 0 80 130 0 130 0 0 -80 0 -80
160 0 160 0 0 80 0 80 70 0 c40 0 70 4 70 10 0 6 -33 10 -80 10 l-80 0 0 -80
0 -80 -140 0 -140 0 0 80 0 80 -150 0 -150 0 0 -80 0 -80 -135 0 -135 0 0 80
0 80 -150 0 -150 0 0 -80 0 -80 -135 0 -135 0 0 80 0 80 -150 0 -150 0 0 -80
0 -80 -135 0 -135 0 0 80 0 80 -150 0 -150 0 0 -80 0 -80 -140 0 -140 0 0 80
0 80 -150 0 -150 0 0 -80 0 -80 -140 0 -140 0 0 80 0 80 -150 0 -150 0 0 -80
0 -80 -135 0 -135 0 0 80 0 80 -150 0 -150 0 0 -80 0 -80 -140 0 -140 0 0 80
0 80 -70 0 c-40 0 -70 -4 -70 -10z"/>
</g>
</svg>
