<?xml version="1.0" standalone="no"?>
<!DOCTYPE svg PUBLIC "-//W3C//DTD SVG 20010904//EN"
 "http://www.w3.org/TR/2001/REC-SVG-20010904/DTD/svg10.dtd">
<svg version="1.0" xmlns="http://www.w3.org/2000/svg"
 width="460.000000pt" height="18.000000pt" viewBox="0 0 460.000000 18.000000"
 preserveAspectRatio="xMidYMid meet">
<metadata>
Created by potrace 1.16, written by Peter Selinger 2001-2019
</metadata>
<g transform="translate(0.000000,18.000000) scale(0.100000,-0.100000)"
fill="#FFA500" stroke="none">
<path d="M0 160 c0 -17 28 -35 145 -91 l145 -70 138 71 137 72 141 -66 c77
-36 149 -66 159 -66 10 0 79 27 154 61 l136 61 133 -66 c73 -36 139 -66 147
-66 8 0 79 32 157 71 l143 71 142 -71 c79 -39 151 -71 160 -71 9 0 71 30 137
66 l121 66 125 -52 c69 -29 137 -55 152 -57 17 -3 80 15 179 52 l152 58 106
-48 c175 -78 157 -78 311 -6 78 36 140 59 150 56 10 -3 73 -30 141 -60 67 -30
131 -55 142 -55 10 0 76 25 145 56 l126 56 111 -52 c176 -84 157 -84 322 -5
108 51 143 73 143 87 0 30 -34 22 -169 -43 l-128 -61 -133 63 c-154 72 -136
72 -311 -6 l-106 -47 -128 56 c-166 72 -177 72 -330 0 l-118 -56 -106 47
c-173 77 -154 77 -331 10 l-153 -58 -126 53 c-69 29 -138 55 -153 57 -21 4
-58 -12 -150 -62 l-123 -67 -133 66 c-87 43 -144 66 -167 66 -23 0 -80 -23
-168 -66 l-132 -66 -133 66 c-72 36 -139 66 -148 66 -9 0 -78 -27 -152 -61
l-135 -60 -61 27 c-34 15 -91 42 -128 60 -99 50 -126 47 -269 -28 l-118 -62
-128 62 c-140 67 -163 73 -163 42z"/>
</g>
</svg>
